PathFileType	4	(X/Y/Z) abd_0kg_3.trc																										
DataRate	CameraRate	NumFrames	NumMarkers	Units	OrigDataRate	OrigDataStartFrame	OrigNumFrames																					
100	100	19	9	mm	100	689	787																					
Frame#	Time	gu			centelbow			EpL			centpxt8			centijc7			ij			ts			aa			ai		
		X1	Y1	Z1	X2	Y2	Z2	X3	Y3	Z3	X4	Y4	Z4	X5	Y5	Z5	X6	Y6	Z6	X7	Y7	Z7	X8	Y8	Z8	X9	Y9	Z9  
688	6.88	-106.505	-1.186	162.22	-150.152	-242.129	194.25	-143.818	-235.086	225.068	-46.816	-153.158	-8.669	-46.816	31.938	-8.669	0	0	0	-134.344	26.39	38.265	-136.255	33.32	157.316	-143.407	-86.164	49.893
689	6.89	-106.344	-1.423	162.299	-150.166	-242.313	194.485	-143.902	-235.24	225.309	-46.816	-153.158	-8.669	-46.816	31.938	-8.669	0	0	0	-134.414	26.251	38.113	-136.373	33.341	157.154	-143.531	-86.283	49.887
690	6.9	-106.253	-1.665	162.572	-150.18	-242.528	194.817	-143.972	-235.439	225.649	-46.816	-153.158	-8.669	-46.816	31.938	-8.669	0	0	0	-134.596	26.166	38.032	-136.616	33.407	157.062	-143.736	-86.352	49.944
691	6.91	-106.236	-1.92	162.887	-150.212	-242.771	195.155	-144.05	-235.67	225.994	-46.816	-153.158	-8.669	-46.816	31.938	-8.669	0	0	0	-134.888	26.112	37.904	-136.982	33.491	156.925	-144.01	-86.394	49.941
692	6.92	-106.256	-2.225	163.127	-150.195	-243.075	195.449	-144.082	-235.957	226.294	-46.816	-153.158	-8.669	-46.816	31.938	-8.669	0	0	0	-135.177	26.078	37.631	-137.355	33.571	156.644	-144.23	-86.422	49.773
693	6.93	-106.241	-2.563	163.289	-150.03	-243.419	195.773	-143.973	-236.265	226.62	-46.816	-153.158	-8.669	-46.816	31.938	-8.669	0	0	0	-135.281	26.007	37.37	-137.541	33.571	156.376	-144.237	-86.494	49.574
694	6.94	-106.164	-2.907	163.471	-149.688	-243.766	196.282	-143.698	-236.552	227.128	-46.816	-153.158	-8.669	-46.816	31.938	-8.669	0	0	0	-135.225	25.793	37.442	-137.555	33.386	156.446	-144.093	-86.712	49.671
695	6.95	-106.063	-3.221	163.801	-149.189	-244.089	197.069	-143.275	-236.794	227.911	-46.816	-153.158	-8.669	-46.816	31.938	-8.669	0	0	0	-135.229	25.495	37.906	-137.607	33.094	156.908	-144.01	-87.017	50.139
696	6.96	-105.95	-3.499	164.285	-148.541	-244.396	198.029	-142.696	-237.017	228.864	-46.816	-153.158	-8.669	-46.816	31.938	-8.669	0	0	0	-135.322	25.283	38.479	-137.716	32.871	157.481	-143.989	-87.238	50.702
697	6.97	-105.824	-3.778	164.766	-147.79	-244.729	198.908	-141.991	-237.278	229.734	-46.816	-153.158	-8.669	-46.816	31.938	-8.669	0	0	0	-135.333	25.173	38.903	-137.713	32.73	157.907	-143.863	-87.362	51.102
698	6.98	-105.678	-4.015	165.01	-146.997	-245.036	199.446	-141.21	-237.534	230.263	-46.816	-153.158	-8.669	-46.816	31.938	-8.669	0	0	0	-135.237	25.09	39.087	-137.578	32.601	158.095	-143.628	-87.459	51.249
699	6.99	-105.471	-4.152	164.887	-146.184	-245.246	199.536	-140.381	-237.708	230.341	-46.816	-153.158	-8.669	-46.816	31.938	-8.669	0	0	0	-135.131	25.007	39.013	-137.402	32.464	158.026	-143.398	-87.556	51.132
700	7	-105.254	-4.246	164.562	-145.468	-245.399	199.377	-139.637	-237.837	230.171	-46.816	-153.158	-8.669	-46.816	31.938	-8.669	0	0	0	-135.065	24.872	38.803	-137.256	32.282	157.82	-143.236	-87.702	50.885
701	7.01	-105.205	-4.335	164.339	-145.018	-245.537	199.282	-139.162	-237.955	230.066	-46.816	-153.158	-8.669	-46.816	31.938	-8.669	0	0	0	-135.083	24.659	38.696	-137.221	32.052	157.715	-143.184	-87.922	50.767
702	7.02	-105.367	-4.381	164.237	-144.793	-245.633	199.271	-138.915	-238.037	230.047	-46.816	-153.158	-8.669	-46.816	31.938	-8.669	0	0	0	-135.194	24.467	38.765	-137.307	31.873	157.784	-143.231	-88.116	50.85
703	7.03	-105.569	-4.346	164.069	-144.571	-245.661	199.145	-138.672	-238.055	229.915	-46.816	-153.158	-8.669	-46.816	31.938	-8.669	0	0	0	-135.338	24.433	38.845	-137.424	31.848	157.864	-143.301	-88.154	50.943
704	7.04	-105.657	-4.237	163.84	-144.204	-245.627	198.903	-138.288	-238.017	229.669	-46.816	-153.158	-8.669	-46.816	31.938	-8.669	0	0	0	-135.472	24.567	38.817	-137.513	31.967	157.837	-143.357	-88.027	50.905
705	7.05	-105.596	-4.177	163.722	-143.714	-245.642	198.734	-137.79	-238.033	229.498	-46.816	-153.158	-8.669	-46.816	31.938	-8.669	0	0	0	-135.555	24.672	38.752	-137.565	32.041	157.774	-143.398	-87.928	50.813
706	7.06	-105.424	-4.306	163.741	-143.197	-245.833	198.698	-137.27	-238.225	229.462	-46.816	-153.158	-8.669	-46.816	31.938	-8.669	0	0	0	-135.501	24.543	38.734	-137.511	31.88	157.759	-143.361	-88.059	50.766
